# xmcd CD database file
#
# Track frame offsets:
#	150
#	15173
#	30961
#	45749
#	59132
#	72698
#	88660
#	104603
#	118517
#	136143
#	149897
#	166240
#	189155
#	204144
#
# Disc length: 2863 seconds
#
# Revision: 0
# Processed by: cddbd v1.5.2PL0 Copyright (c) Steve Scherf et al.
# Submitted via: CDex 1.70beta2
#
DISCID=c20b2d0e
DTITLE=Veterán Western - Parník písní
DYEAR=1900
DGENRE=Country
TTITLE0=Parník písní
TTITLE1=Nesmíš zůstat sám
TTITLE2=Petře, ať zvony zvoní
TTITLE3=Zaslíbená zem
TTITLE4=Virginny
TTITLE5=Kabrňák
TTITLE6=Vozíčku ke mě leť
TTITLE7=Skála
TTITLE8=Inzerát
TTITLE9=Labutí řeka
TTITLE10=Ó jak věrný přítel Ježíš
TTITLE11=Pověz
TTITLE12=Já šaty mám
TTITLE13=Parník ísní
EXTD=
EXTT0=
EXTT1=
EXTT2=
EXTT3=
EXTT4=
EXTT5=
EXTT6=
EXTT7=
EXTT8=
EXTT9=
EXTT10=
EXTT11=
EXTT12=
EXTT13=
PLAYORDER=
